<svg width="32" height="32" viewBox="0 0 32 32" fill="none" xmlns="http://www.w3.org/2000/svg">
<path fill-rule="evenodd" clip-rule="evenodd" d="M13.352 0C13.352 0 16.236 3.1487 15.0859 8.72084C13.9359 14.293 4.64693 16.7872 5.37235 23.5445C6.09777 30.3018 16.0414 32 16.0414 32C16.0414 32 11.3881 28.6213 11.7419 24.5174C12.1135 20.4135 20.1462 14.8413 20.1462 9.72913C20.1639 4.61692 13.352 0 13.352 0Z" fill="#009A47"/>
<path fill-rule="evenodd" clip-rule="evenodd" d="M22.2521 8.98633C22.2521 8.98633 23.7737 13.4087 20.3059 16.6635C16.838 19.9006 13.1047 25.6143 16.4841 29.1699C16.3072 25.7204 19.0142 23.2616 21.2082 20.9266C22.5175 19.5115 23.7207 18.114 24.1099 16.5574C24.5522 14.7531 24.1453 11.6397 22.2521 8.98633Z" fill="#00722A"/>
<path fill-rule="evenodd" clip-rule="evenodd" d="M24.7664 19.7949C25.881 24.7302 17.229 26.3223 18.0783 31.9652C18.8745 28.728 23.634 28.4273 25.2441 25.597C25.9872 24.2703 26.0403 22.2007 24.7664 19.7949Z" fill="#004918"/>
</svg>
