<svg width="24" height="25" viewBox="0 0 24 25" fill="none" xmlns="http://www.w3.org/2000/svg">
<path d="M21.0703 11.7629C21.0703 11.5923 21 11.4488 20.8594 11.3325C20.7188 11.2162 20.5625 11.1658 20.3906 11.1813C20.2187 11.1968 20.0742 11.2705 19.957 11.4023C19.8398 11.5342 19.7891 11.6854 19.8047 11.856C19.8047 11.9646 19.8086 12.077 19.8164 12.1933C19.8242 12.3097 19.8281 12.4221 19.8281 12.5307C19.8281 13.8025 19.5859 14.9968 19.1016 16.1135C18.6172 17.2302 17.9531 18.2035 17.1094 19.0333C16.2656 19.8631 15.2812 20.5184 14.1562 20.9992C13.0312 21.48 11.8281 21.7204 10.5469 21.7204C9.26562 21.7204 8.0625 21.48 6.9375 20.9992C5.8125 20.5184 4.83203 19.8631 3.99609 19.0333C3.16016 18.2035 2.5 17.2302 2.01562 16.1135C1.53125 14.9968 1.28906 13.8025 1.28906 12.5307C1.28906 11.2588 1.53125 10.0646 2.01562 8.94784C2.5 7.83111 3.16016 6.85398 3.99609 6.01643C4.83203 5.17888 5.8125 4.5197 6.9375 4.03889C8.0625 3.55808 9.26562 3.31767 10.5469 3.31767C11.5625 3.31767 12.543 3.47277 13.4883 3.78297C14.4336 4.09318 15.3125 4.55072 16.125 5.15562C16.2656 5.26419 16.4219 5.30684 16.5938 5.28358C16.7656 5.26031 16.9063 5.17888 17.0156 5.03929C17.125 4.8997 17.1641 4.74072 17.1328 4.56236C17.1016 4.38399 17.0156 4.24828 16.875 4.15522C15.9687 3.45726 14.9766 2.9338 13.8984 2.58482C12.8203 2.23584 11.7031 2.06135 10.5469 2.06135C9.09375 2.06135 7.72656 2.33278 6.44531 2.87563C5.16406 3.41849 4.04688 4.16685 3.09375 5.12072C2.14062 6.07459 1.38281 7.18744 0.820312 8.45927C0.273437 9.7311 0 11.0882 0 12.5307C0 13.9731 0.273437 15.3303 0.820312 16.6021C1.38281 17.8739 2.14062 18.9829 3.09375 19.929C4.04688 20.8751 5.16406 21.6274 6.44531 22.1857C7.72656 22.7286 9.09375 23 10.5469 23C12 23 13.3672 22.7286 14.6484 22.1857C15.9297 21.6274 17.0508 20.8751 18.0117 19.929C18.9727 18.9829 19.7266 17.8739 20.2734 16.6021C20.8359 15.3303 21.1172 13.9731 21.1172 12.5307C21.1172 12.4066 21.1133 12.2786 21.1055 12.1468C21.0977 12.015 21.0859 11.887 21.0703 11.7629ZM23.2734 3.48053C22.7891 2.99971 22.1992 2.75931 21.5039 2.75931C20.8086 2.75931 20.2187 2.99971 19.7344 3.48053L10.5 12.6703L7.21875 9.41314C6.73438 8.93233 6.14453 8.69192 5.44922 8.69192C4.75391 8.69192 4.16406 8.93233 3.67969 9.41314C3.19531 9.89396 2.95312 10.4795 2.95312 11.1697C2.95312 11.8599 3.19531 12.4454 3.67969 12.9262L9.32812 18.5098C9.48437 18.6804 9.66406 18.8045 9.86719 18.8821C10.0703 18.9596 10.2813 18.9984 10.5 18.9984C10.7031 18.9984 10.9062 18.9596 11.1094 18.8821C11.3125 18.8045 11.5 18.6804 11.6719 18.5098L23.2734 6.99357C23.7578 6.51275 24 5.93112 24 5.24868C24 4.56623 23.7578 3.97685 23.2734 3.48053ZM22.3594 6.10949L10.7578 17.6257C10.6797 17.6878 10.5898 17.7188 10.4883 17.7188C10.3867 17.7188 10.2969 17.6878 10.2188 17.6257L4.59375 12.0188C4.34375 11.7862 4.21875 11.5031 4.21875 11.1697C4.21875 10.8362 4.34375 10.5531 4.59375 10.3205C4.70312 10.1964 4.83203 10.1033 4.98047 10.0413C5.12891 9.97926 5.28125 9.94824 5.4375 9.94824C5.59375 9.94824 5.75 9.97926 5.90625 10.0413C6.0625 10.1033 6.19531 10.1964 6.30469 10.3205L9.67969 13.6474C9.78906 13.756 9.91406 13.8413 10.0547 13.9033C10.1953 13.9654 10.3438 13.9964 10.5 13.9964C10.6406 13.9964 10.7812 13.9654 10.9219 13.9033C11.0625 13.8413 11.1875 13.756 11.2969 13.6474L20.6484 4.38787C20.8828 4.15522 21.168 4.03889 21.5039 4.03889C21.8398 4.03889 22.125 4.15522 22.3594 4.38787C22.5938 4.62052 22.7109 4.90358 22.7109 5.23705C22.7109 5.57051 22.5938 5.86133 22.3594 6.10949Z" fill="#FFD500"/>
</svg>
